<?xml version="1.0" encoding="UTF-8" standalone="no"?>
<svg
   xmlns:dc="http://purl.org/dc/elements/1.1/"
   xmlns:cc="http://creativecommons.org/ns#"
   xmlns:rdf="http://www.w3.org/1999/02/22-rdf-syntax-ns#"
   xmlns:svg="http://www.w3.org/2000/svg"
   xmlns="http://www.w3.org/2000/svg"
   xmlns:sodipodi="http://sodipodi.sourceforge.net/DTD/sodipodi-0.dtd"
   xmlns:inkscape="http://www.inkscape.org/namespaces/inkscape"
   width="74mm"
   height="74mm"
   viewBox="-68 -68 74 74"
   version="1.1"
   id="svg4780"
   inkscape:version="0.91 r13725"
   sodipodi:docname="WordClock_de.svg">
  <metadata
     id="metadata4790">
    <rdf:RDF>
      <cc:Work
         rdf:about="">
        <dc:format>image/svg+xml</dc:format>
        <dc:type
           rdf:resource="http://purl.org/dc/dcmitype/StillImage" />
        <dc:title>OpenSCAD Model</dc:title>
      </cc:Work>
    </rdf:RDF>
  </metadata>
  <defs
     id="defs4788" />
  <sodipodi:namedview
     pagecolor="#ffffff"
     bordercolor="#666666"
     borderopacity="1"
     objecttolerance="10"
     gridtolerance="10"
     guidetolerance="10"
     inkscape:pageopacity="0"
     inkscape:pageshadow="2"
     inkscape:window-width="1375"
     inkscape:window-height="876"
     id="namedview4786"
     showgrid="false"
     inkscape:zoom="0.90006006"
     inkscape:cx="131.10236"
     inkscape:cy="131.10236"
     inkscape:window-x="65"
     inkscape:window-y="24"
     inkscape:window-maximized="1"
     inkscape:current-layer="svg4780" />
  <title
     id="title4782">OpenSCAD Model</title>
  <path
     d=" M 6,-68 L -68,-68 L -68,6 L 6,6 z M -11.5951,-59.5975 L -11.5951,-60.0975 L -11.1461,-60.0975 L -11.1461,-59.5975 z M -12.6341,-59.5975 L -12.6341,-60.0975 L -12.1911,-60.0975 L -12.1911,-59.5975 z M -36.2698,-55.8125 L -36.2698,-56.2365 L -33.8179,-56.2365 L -36.1428,-59.2745 L -36.1428,-59.6525 L -33.4259,-59.6525  L -33.4259,-59.2285 L -35.5528,-59.2285 L -33.2279,-56.2015 L -33.2279,-55.8125 z M -3.52686,-55.8125 L -3.52686,-57.3665 L -5.65685,-57.3665 L -5.65685,-57.7965 L -3.52686,-57.7965 L -3.52686,-59.2285  L -5.72185,-59.2285 L -5.72185,-59.6525 L -3.00786,-59.6525 L -3.00786,-55.8125 z M -21.0761,-55.8125 L -21.0761,-59.6525 L -20.6081,-59.6525 L -20.6081,-57.1325 L -20.6118,-56.9398 L -20.6228,-56.6818  L -20.6411,-56.3585 L -18.5601,-59.6525 L -17.9571,-59.6525 L -17.9571,-55.8125 L -18.4191,-55.8125 L -18.4191,-58.3645  L -18.4051,-58.8205 L -18.3921,-59.0845 L -20.4511,-55.8125 z M -59.2011,-55.8125 L -59.2011,-59.6525 L -58.7331,-59.6525 L -58.7331,-57.1325 L -58.7368,-56.9398 L -58.7478,-56.6818  L -58.7661,-56.3585 L -56.6851,-59.6525 L -56.0821,-59.6525 L -56.0821,-55.8125 L -56.5441,-55.8125 L -56.5441,-58.3645  L -56.5301,-58.8205 L -56.5171,-59.0845 L -58.5761,-55.8125 z M -51.5761,-55.8125 L -51.5761,-59.6525 L -51.0571,-59.6525 L -51.0571,-58.0525 L -48.9761,-58.0525 L -48.9761,-59.6525  L -48.4571,-59.6525 L -48.4571,-55.8125 L -48.9761,-55.8125 L -48.9761,-57.6175 L -51.0571,-57.6175 L -51.0571,-55.8125  z M -26.4019,-55.8125 L -26.4019,-57.3665 L -28.5318,-57.3665 L -28.5318,-57.7965 L -26.4019,-57.7965 L -26.4019,-59.2285  L -28.5968,-59.2285 L -28.5968,-59.6525 L -25.8829,-59.6525 L -25.8829,-55.8125 z M -43.997,-55.8125 L -43.997,-56.2365 L -41.5,-56.2365 L -41.5,-57.5695 L -43.722,-57.5695 L -43.722,-57.9885  L -41.5,-57.9885 L -41.5,-59.2285 L -43.885,-59.2285 L -43.885,-59.6525 L -40.981,-59.6525 L -40.981,-55.8125  z M -12.1794,-55.3934 L -12.4631,-55.4531 L -12.7181,-55.5525 L -12.9411,-55.6895 L -13.1274,-55.8618 L -13.2771,-56.0695  L -13.3871,-56.3098 L -13.4531,-56.5788 L -13.4751,-56.8765 L -13.4751,-59.2775 L -12.9591,-59.2775 L -12.9591,-56.9045  L -12.9271,-56.5708 L -12.8311,-56.2952 L -12.6711,-56.0775 L -12.4534,-55.9203 L -12.1844,-55.826 L -11.8641,-55.7945  L -11.5538,-55.8248 L -11.2961,-55.9158 L -11.0911,-56.0675 L -10.9428,-56.2783 L -10.8538,-56.5453 L -10.8241,-56.8685  L -10.8241,-59.2775 L -10.3051,-59.2775 L -10.3051,-56.8265 L -10.3266,-56.5384 L -10.3909,-56.2781 L -10.4981,-56.0455  L -10.6449,-55.8442 L -10.8266,-55.6775 L -11.0431,-55.5455 L -11.2911,-55.45 L -11.5658,-55.3926 L -11.8671,-55.3735  z M -12.2687,-48.1505 L -12.6081,-48.2315 L -12.9127,-48.3665 L -13.1784,-48.5525 L -13.3994,-48.7852 L -13.5757,-49.0645  L -13.7041,-49.3844 L -13.7811,-49.7374 L -13.8067,-50.1235 L -13.7814,-50.5108 L -13.7054,-50.8622 L -13.5787,-51.1775  L -13.4041,-51.4513 L -13.1841,-51.6779 L -12.9187,-51.8575 L -12.614,-51.9875 L -12.2743,-52.0655 L -11.8997,-52.0915  L -11.343,-52.0335 L -10.874,-51.8595 L -10.4928,-51.5695 L -10.2122,-51.1773 L -10.0439,-50.6953 L -9.98776,-50.1235  L -10.0129,-49.7356 L -10.0882,-49.3813 L -10.2138,-49.0605 L -10.3876,-48.7809 L -10.6066,-48.549 L -10.8708,-48.3645  L -11.1761,-48.2306 L -11.5174,-48.1503 L -11.8947,-48.1235 z M -11.4931,-48.5918 L -11.1551,-48.7338 L -10.8798,-48.9705 L -10.677,-49.2884 L -10.5553,-49.6727 L -10.5148,-50.1235  L -10.5549,-50.5753 L -10.6752,-50.9546 L -10.8758,-51.2615 L -11.15,-51.487 L -11.4913,-51.6224 L -11.8997,-51.6675  L -12.3042,-51.6217 L -12.6429,-51.4844 L -12.9157,-51.2555 L -13.1157,-50.9471 L -13.2357,-50.5697 L -13.2757,-50.1235  L -13.2361,-49.6587 L -13.1171,-49.2697 L -12.9187,-48.9565 L -12.6462,-48.7276 L -12.3045,-48.5903 L -11.8937,-48.5445  z M -42.8928,-48.1519 L -43.2248,-48.2373 L -43.5261,-48.3795 L -43.7913,-48.577 L -44.0137,-48.8266 L -44.1931,-49.1285  L -43.7691,-49.3395 L -43.4533,-48.9012 L -43.0487,-48.6382 L -42.5551,-48.5505 L -42.1635,-48.5985 L -41.8298,-48.7425  L -41.5541,-48.9825 L -41.3491,-49.3014 L -41.2261,-49.6821 L -41.1851,-50.1245 L -41.2246,-50.5692 L -41.3429,-50.9458  L -41.5401,-51.2545 L -41.8082,-51.4839 L -42.1392,-51.6216 L -42.5331,-51.6675 L -42.7921,-51.6485 L -43.0264,-51.5915  L -43.2361,-51.4965 L -43.4154,-51.3662 L -43.5588,-51.2018 L -43.6661,-51.0035 L -44.1581,-51.1635 L -44.0045,-51.4451  L -43.8026,-51.6764 L -43.5521,-51.8575 L -43.2557,-51.9875 L -42.9143,-52.0655 L -42.5281,-52.0915 L -41.9852,-52.0334  L -41.5272,-51.8591 L -41.1541,-51.5685 L -40.8786,-51.1759 L -40.7132,-50.6943 L -40.6581,-50.1235 L -40.6828,-49.7317  L -40.7568,-49.3764 L -40.8801,-49.0575 L -41.0506,-48.7806 L -41.2659,-48.55 L -41.5261,-48.3655 L -41.8261,-48.2311  L -42.1608,-48.1504 L -42.5301,-48.1235 z M -21.2721,-48.1875 L -20.1811,-49.8205 L -20.4527,-49.896 L -20.682,-50.0196 L -20.8691,-50.1915 L -21.008,-50.4034  L -21.0913,-50.6457 L -21.1191,-50.9185 L -21.0799,-51.2416 L -20.9622,-51.5136 L -20.7661,-51.7345 L -20.4979,-51.8973  L -20.1639,-51.9949 L -19.7641,-52.0275 L -17.9571,-52.0275 L -17.9571,-48.1875 L -18.4761,-48.1875 L -18.4761,-49.7605  L -19.6761,-49.7605 L -20.6741,-48.1875 z M -18.4761,-51.6115 L -19.7131,-51.6115 L -19.9762,-51.5916 L -20.1949,-51.5319 L -20.3691,-51.4325 L -20.4958,-51.2957  L -20.5718,-51.1227 L -20.5971,-50.9135 L -20.5721,-50.6963 L -20.4971,-50.5139 L -20.3721,-50.3665 L -20.2012,-50.2582  L -19.9886,-50.1932 L -19.7341,-50.1715 L -18.4761,-50.1715 z M -36.6,-48.1875 L -35.062,-52.0275 L -34.472,-52.0275 L -32.91,-48.1875 L -33.448,-48.1875 L -33.888,-49.3185  L -35.632,-49.3185 L -36.07,-48.1875 z M -34.535,-50.9805 L -34.6165,-51.2022 L -34.6835,-51.3952 L -34.736,-51.5595 L -34.76,-51.6355 L -34.833,-51.4105  L -34.8842,-51.258 L -34.9352,-51.1167 L -34.986,-50.9865 L -35.478,-49.7235 L -34.046,-49.7235 z M -51.5761,-48.1875 L -51.5761,-52.0275 L -51.0571,-52.0275 L -51.0571,-50.4275 L -48.9761,-50.4275 L -48.9761,-52.0275  L -48.4571,-52.0275 L -48.4571,-48.1875 L -48.9761,-48.1875 L -48.9761,-49.9925 L -51.0571,-49.9925 L -51.0571,-48.1875  z M -28.7011,-48.1875 L -28.7011,-52.0275 L -28.2331,-52.0275 L -28.2331,-49.5075 L -28.2368,-49.3148 L -28.2478,-49.0568  L -28.2661,-48.7335 L -26.1851,-52.0275 L -25.5821,-52.0275 L -25.5821,-48.1875 L -26.0441,-48.1875 L -26.0441,-50.7395  L -26.0301,-51.1955 L -26.0171,-51.4595 L -28.0761,-48.1875 z M -4.52402,-48.1875 L -6.08701,-52.0275 L -5.54102,-52.0275 L -4.48601,-49.3235 L -4.25801,-48.6445 L -4.03003,-49.3235  L -2.97003,-52.0275 L -2.42302,-52.0275 L -3.98602,-48.1875 z M -58.3534,-50.2425 L -57.8484,-50.9325 L -58.6184,-51.1335 L -58.4954,-51.4975 L -57.7744,-51.2135 L -57.8084,-52.0275  L -57.4384,-52.0275 L -57.4714,-51.2075 L -56.7424,-51.5035 L -56.6194,-51.1335 L -57.3844,-50.9325 L -56.8684,-50.2475  L -57.1924,-50.0495 L -57.6194,-50.7555 L -58.0304,-50.0435 z M -13.725,-40.5625 L -12.187,-44.4025 L -11.597,-44.4025 L -10.035,-40.5625 L -10.573,-40.5625 L -11.013,-41.6935  L -12.757,-41.6935 L -13.195,-40.5625 z M -11.66,-43.3555 L -11.7415,-43.5772 L -11.8085,-43.7702 L -11.861,-43.9345 L -11.885,-44.0105 L -11.958,-43.7855  L -12.0092,-43.633 L -12.0602,-43.4917 L -12.111,-43.3615 L -12.603,-42.0985 L -11.171,-42.0985 z M -59.3971,-40.5625 L -58.3061,-42.1955 L -58.5777,-42.271 L -58.807,-42.3946 L -58.9941,-42.5665 L -59.133,-42.7784  L -59.2163,-43.0207 L -59.2441,-43.2935 L -59.2049,-43.6166 L -59.0872,-43.8886 L -58.8911,-44.1095 L -58.6229,-44.2723  L -58.2889,-44.3699 L -57.8891,-44.4025 L -56.0821,-44.4025 L -56.0821,-40.5625 L -56.6011,-40.5625 L -56.6011,-42.1355  L -57.8011,-42.1355 L -58.7991,-40.5625 z M -56.6011,-43.9865 L -57.8381,-43.9865 L -58.1012,-43.9666 L -58.3199,-43.9069 L -58.4941,-43.8075 L -58.6208,-43.6707  L -58.6968,-43.4977 L -58.7221,-43.2885 L -58.6971,-43.0713 L -58.6221,-42.8889 L -58.4971,-42.7415 L -58.3262,-42.6332  L -58.1136,-42.5682 L -57.8591,-42.5465 L -56.6011,-42.5465 z M -51.622,-40.5625 L -51.622,-40.9865 L -49.125,-40.9865 L -49.125,-42.3195 L -51.347,-42.3195 L -51.347,-42.7385  L -49.125,-42.7385 L -49.125,-43.9785 L -51.51,-43.9785 L -51.51,-44.4025 L -48.606,-44.4025 L -48.606,-40.5625  z M -27.285,-40.5625 L -27.6947,-40.5946 L -28.0397,-40.6909 L -28.32,-40.8515 L -28.5272,-41.0705 L -28.6516,-41.3408  L -28.693,-41.6625 L -28.6655,-41.9076 L -28.5828,-42.123 L -28.445,-42.3085 L -28.2571,-42.4574 L -28.0228,-42.5614  L -27.742,-42.6205 L -27.9565,-42.689 L -28.1358,-42.7907 L -28.28,-42.9255 L -28.3856,-43.0888 L -28.4489,-43.2762  L -28.47,-43.4875 L -28.3202,-43.9958 L -27.8709,-44.3008 L -27.122,-44.4025 L -25.731,-44.4025 L -25.731,-40.5625  z M -26.25,-43.9865 L -27.122,-43.9865 L -27.3689,-43.972 L -27.5736,-43.9287 L -27.736,-43.8565 L -27.8538,-43.7506  L -27.9245,-43.6063 L -27.948,-43.4235 L -27.9252,-43.2309 L -27.8569,-43.0746 L -27.743,-42.9545 L -27.5829,-42.87  L -27.3759,-42.8194 L -27.122,-42.8025 L -26.25,-42.8025 z M -26.25,-42.3975 L -27.217,-42.3975 L -27.7453,-42.3202 L -28.0623,-42.0882 L -28.168,-41.7015 L -28.1438,-41.4813  L -28.0711,-41.3006 L -27.95,-41.1595 L -27.7767,-41.0589 L -27.546,-40.9986 L -27.258,-40.9785 L -26.25,-40.9785  z M -20.8393,-40.5625 L -20.8393,-40.9865 L -18.9223,-40.9865 L -18.9223,-44.4025 L -18.4033,-44.4025 L -18.4033,-40.5625  z M -42.6111,-40.5625 L -42.6111,-44.4025 L -42.0921,-44.4025 L -42.0921,-40.5625 z M -5.30711,-42.3675 L -5.30711,-40.5625 L -5.82611,-40.5625 L -5.82611,-44.4025 L -5.30711,-44.4025 L -5.30711,-42.8025  L -3.22612,-42.8025 L -3.22612,-44.4025 L -2.70712,-44.4025 L -2.70712,-40.5625 L -3.22612,-40.5625 L -3.22612,-42.3675  z M -35.024,-40.5625 L -36.587,-44.4025 L -36.041,-44.4025 L -34.986,-41.6985 L -34.758,-41.0195 L -34.53,-41.6985  L -33.47,-44.4025 L -32.923,-44.4025 L -34.486,-40.5625 z M -42.8928,-32.9019 L -43.2248,-32.9873 L -43.5261,-33.1295 L -43.7913,-33.327 L -44.0137,-33.5766 L -44.1931,-33.8785  L -43.7691,-34.0895 L -43.4533,-33.6512 L -43.0487,-33.3882 L -42.5551,-33.3005 L -42.1635,-33.3485 L -41.8298,-33.4925  L -41.5541,-33.7325 L -41.3491,-34.0514 L -41.2261,-34.4321 L -41.1851,-34.8745 L -41.2246,-35.3192 L -41.3429,-35.6958  L -41.5401,-36.0045 L -41.8082,-36.2339 L -42.1392,-36.3716 L -42.5331,-36.4175 L -42.7921,-36.3985 L -43.0264,-36.3415  L -43.2361,-36.2465 L -43.4154,-36.1162 L -43.5588,-35.9518 L -43.6661,-35.7535 L -44.1581,-35.9135 L -44.0045,-36.1951  L -43.8026,-36.4264 L -43.5521,-36.6075 L -43.2557,-36.7375 L -42.9143,-36.8155 L -42.5281,-36.8415 L -41.9852,-36.7834  L -41.5272,-36.6091 L -41.1541,-36.3185 L -40.8786,-35.9259 L -40.7132,-35.4443 L -40.6581,-34.8735 L -40.6828,-34.4817  L -40.7568,-34.1264 L -40.8801,-33.8075 L -41.0506,-33.5306 L -41.2659,-33.3 L -41.5261,-33.1155 L -41.8261,-32.9811  L -42.1608,-32.9004 L -42.5301,-32.8735 z M -58.1133,-32.9061 L -58.5023,-33.0037 L -58.816,-33.1665 L -59.0466,-33.3885 L -59.1849,-33.6638 L -59.231,-33.9925  L -59.2245,-34.1271 L -59.2048,-34.2494 L -59.172,-34.3595 L -59.1283,-34.459 L -59.0747,-34.5493 L -59.011,-34.6305  L -58.9382,-34.7032 L -58.8572,-34.7678 L -58.768,-34.8245 L -58.6723,-34.8754 L -58.572,-34.9214 L -58.467,-34.9625  L -58.3587,-34.9999 L -58.247,-35.0336 L -58.132,-35.0635 L -58.0151,-35.0919 L -57.8978,-35.1199 L -57.78,-35.1475  L -57.4676,-35.2219 L -57.2329,-35.2879 L -57.076,-35.3455 L -56.9673,-35.4034 L -56.8769,-35.4691 L -56.805,-35.5425  L -56.7534,-35.6273 L -56.7224,-35.7256 L -56.712,-35.8375 L -56.7388,-36.0239 L -56.8191,-36.1766 L -56.953,-36.2955  L -57.1385,-36.381 L -57.3721,-36.4324 L -57.654,-36.4495 L -57.9125,-36.4342 L -58.1304,-36.3882 L -58.308,-36.3115  L -58.449,-36.2016 L -58.556,-36.0546 L -58.629,-35.8705 L -59.141,-35.9605 L -59.0255,-36.2499 L -58.8641,-36.4769  L -58.657,-36.6415 L -58.3929,-36.7526 L -58.0606,-36.8193 L -57.66,-36.8415 L -57.2287,-36.8117 L -56.8694,-36.7224  L -56.582,-36.5735 L -56.3731,-36.3695 L -56.2478,-36.1148 L -56.206,-35.8095 L -56.214,-35.6709 L -56.238,-35.5433  L -56.278,-35.4265 L -56.3331,-35.3198 L -56.4025,-35.2225 L -56.486,-35.1345 L -56.5877,-35.0544 L -56.7114,-34.9794  L -56.857,-34.9095 L -57.038,-34.8422 L -57.2677,-34.7748 L -57.546,-34.7075 L -57.7148,-34.6678 L -57.8731,-34.6302  L -58.021,-34.5945 L -58.1577,-34.5571 L -58.281,-34.5141 L -58.391,-34.4655 L -58.4866,-34.4102 L -58.5666,-34.3455  L -58.631,-34.2715 L -58.6788,-34.1855 L -58.7075,-34.0835 L -58.717,-33.9655 L -58.6867,-33.7583 L -58.5957,-33.5873  L -58.444,-33.4525 L -58.2365,-33.3558 L -57.9778,-33.2978 L -57.668,-33.2785 L -57.3666,-33.2965 L -57.1102,-33.3505  L -56.899,-33.4405 L -56.7327,-33.5688 L -56.6097,-33.7378 L -56.53,-33.9475 L -56.027,-33.8465 L -56.3064,-33.306  L -56.847,-32.9816 L -57.649,-32.8735 z M -27.6133,-32.9061 L -28.0023,-33.0037 L -28.316,-33.1665 L -28.5466,-33.3885 L -28.6849,-33.6638 L -28.731,-33.9925  L -28.7245,-34.1271 L -28.7048,-34.2494 L -28.672,-34.3595 L -28.6283,-34.459 L -28.5747,-34.5493 L -28.511,-34.6305  L -28.4382,-34.7032 L -28.3572,-34.7678 L -28.268,-34.8245 L -28.1723,-34.8754 L -28.072,-34.9214 L -27.967,-34.9625  L -27.8587,-34.9999 L -27.747,-35.0336 L -27.632,-35.0635 L -27.5151,-35.0919 L -27.3978,-35.1199 L -27.28,-35.1475  L -26.9676,-35.2219 L -26.7329,-35.2879 L -26.576,-35.3455 L -26.4673,-35.4034 L -26.3769,-35.4691 L -26.305,-35.5425  L -26.2534,-35.6273 L -26.2224,-35.7256 L -26.212,-35.8375 L -26.2388,-36.0239 L -26.3191,-36.1766 L -26.453,-36.2955  L -26.6385,-36.381 L -26.8721,-36.4324 L -27.154,-36.4495 L -27.4125,-36.4342 L -27.6304,-36.3882 L -27.808,-36.3115  L -27.949,-36.2016 L -28.056,-36.0546 L -28.129,-35.8705 L -28.641,-35.9605 L -28.5255,-36.2499 L -28.3641,-36.4769  L -28.157,-36.6415 L -27.8929,-36.7526 L -27.5606,-36.8193 L -27.16,-36.8415 L -26.7287,-36.8117 L -26.3694,-36.7224  L -26.082,-36.5735 L -25.8731,-36.3695 L -25.7478,-36.1148 L -25.706,-35.8095 L -25.714,-35.6709 L -25.738,-35.5433  L -25.778,-35.4265 L -25.8331,-35.3198 L -25.9025,-35.2225 L -25.986,-35.1345 L -26.0877,-35.0544 L -26.2114,-34.9794  L -26.357,-34.9095 L -26.538,-34.8422 L -26.7677,-34.7748 L -27.046,-34.7075 L -27.2148,-34.6678 L -27.3731,-34.6302  L -27.521,-34.5945 L -27.6577,-34.5571 L -27.781,-34.5141 L -27.891,-34.4655 L -27.9866,-34.4102 L -28.0666,-34.3455  L -28.131,-34.2715 L -28.1788,-34.1855 L -28.2075,-34.0835 L -28.217,-33.9655 L -28.1867,-33.7583 L -28.0957,-33.5873  L -27.944,-33.4525 L -27.7365,-33.3558 L -27.4778,-33.2978 L -27.168,-33.2785 L -26.8666,-33.2965 L -26.6102,-33.3505  L -26.399,-33.4405 L -26.2327,-33.5688 L -26.1097,-33.7378 L -26.03,-33.9475 L -25.527,-33.8465 L -25.8064,-33.306  L -26.347,-32.9816 L -27.149,-32.8735 z M -36.372,-32.9375 L -36.372,-33.3615 L -33.875,-33.3615 L -33.875,-34.6945 L -36.097,-34.6945 L -36.097,-35.1135  L -33.875,-35.1135 L -33.875,-36.3535 L -36.26,-36.3535 L -36.26,-36.7775 L -33.356,-36.7775 L -33.356,-32.9375  z M -5.87201,-32.9375 L -5.87201,-33.3615 L -3.37503,-33.3615 L -3.37503,-34.6945 L -5.59702,-34.6945 L -5.59702,-35.1135  L -3.37503,-35.1135 L -3.37503,-36.3535 L -5.76001,-36.3535 L -5.76001,-36.7775 L -2.85602,-36.7775 L -2.85602,-32.9375  z M -51.5761,-32.9375 L -51.5761,-36.7775 L -51.0571,-36.7775 L -51.0571,-35.1775 L -48.9761,-35.1775 L -48.9761,-36.7775  L -48.4571,-36.7775 L -48.4571,-32.9375 L -48.9761,-32.9375 L -48.9761,-34.7425 L -51.0571,-34.7425 L -51.0571,-32.9375  z M -18.4051,-35.9455 L -18.3921,-36.2095 L -20.4511,-32.9375 L -21.0761,-32.9375 L -21.0761,-36.7775 L -20.6081,-36.7775  L -20.6081,-34.2575 L -20.6118,-34.0648 L -20.6228,-33.8068 L -20.6411,-33.4835 L -18.5601,-36.7775 L -17.9571,-36.7775  L -17.9571,-32.9375 L -18.4191,-32.9375 L -18.4191,-35.4895 z M -12.1111,-32.9375 L -12.1111,-36.7775 L -11.5921,-36.7775 L -11.5921,-32.9375 z M -42.1358,-29.0975 L -42.1358,-29.5975 L -41.6868,-29.5975 L -41.6868,-29.0975 z M -43.1747,-29.0975 L -43.1747,-29.5975 L -42.7317,-29.5975 L -42.7317,-29.0975 z M -4.73834,-25.2811 L -5.12735,-25.3787 L -5.44101,-25.5415 L -5.67157,-25.7635 L -5.80991,-26.0388 L -5.856,-26.3675  L -5.84946,-26.5021 L -5.82979,-26.6244 L -5.79701,-26.7345 L -5.75334,-26.834 L -5.69968,-26.9243 L -5.63602,-27.0055  L -5.56323,-27.0782 L -5.48224,-27.1428 L -5.39301,-27.1995 L -5.29735,-27.2504 L -5.19701,-27.2964 L -5.09201,-27.3375  L -4.98367,-27.3749 L -4.87201,-27.4086 L -4.757,-27.4385 L -4.64012,-27.4669 L -4.52278,-27.4949 L -4.40501,-27.5225  L -4.09258,-27.5969 L -3.85791,-27.6629 L -3.70102,-27.7205 L -3.59225,-27.7784 L -3.50191,-27.8441 L -3.43002,-27.9175  L -3.37836,-28.0023 L -3.34735,-28.1006 L -3.33702,-28.2125 L -3.3638,-28.3989 L -3.44414,-28.5516 L -3.57802,-28.6705  L -3.76347,-28.756 L -3.99713,-28.8074 L -4.27901,-28.8245 L -4.53746,-28.8092 L -4.75545,-28.7632 L -4.93301,-28.6865  L -5.07401,-28.5766 L -5.18102,-28.4296 L -5.25401,-28.2455 L -5.76601,-28.3355 L -5.65045,-28.6249 L -5.48912,-28.8519  L -5.28201,-29.0165 L -5.0179,-29.1276 L -4.68556,-29.1943 L -4.285,-29.2165 L -3.8537,-29.1867 L -3.49435,-29.0974  L -3.20703,-28.9485 L -2.99814,-28.7445 L -2.8728,-28.4898 L -2.83102,-28.1845 L -2.83902,-28.0459 L -2.86302,-27.9183  L -2.90303,-27.8015 L -2.95813,-27.6948 L -3.02747,-27.5975 L -3.11102,-27.5095 L -3.21269,-27.4294 L -3.33636,-27.3544  L -3.48203,-27.2845 L -3.66302,-27.2172 L -3.89268,-27.1498 L -4.17102,-27.0825 L -4.33978,-27.0428 L -4.49812,-27.0052  L -4.64601,-26.9695 L -4.78267,-26.9321 L -4.90601,-26.8891 L -5.01601,-26.8405 L -5.11157,-26.7852 L -5.19156,-26.7205  L -5.25601,-26.6465 L -5.30379,-26.5605 L -5.33246,-26.4585 L -5.34201,-26.3405 L -5.31168,-26.1333 L -5.22067,-25.9623  L -5.06902,-25.8275 L -4.86145,-25.7308 L -4.60278,-25.6728 L -4.29301,-25.6535 L -3.99158,-25.6715 L -3.73524,-25.7255  L -3.52402,-25.8155 L -3.3577,-25.9438 L -3.2347,-26.1128 L -3.15503,-26.3225 L -2.65202,-26.2215 L -2.93135,-25.681  L -3.47203,-25.3566 L -4.27402,-25.2485 z M -56.9019,-25.3125 L -56.9019,-26.8665 L -59.0318,-26.8665 L -59.0318,-27.2965 L -56.9019,-27.2965 L -56.9019,-28.7285  L -59.0968,-28.7285 L -59.0968,-29.1525 L -56.3829,-29.1525 L -56.3829,-25.3125 z M -12.1111,-25.3125 L -12.1111,-29.1525 L -11.5921,-29.1525 L -11.5921,-25.3125 z M -51.3393,-25.3125 L -51.3393,-25.7365 L -49.4223,-25.7365 L -49.4223,-29.1525 L -48.9033,-29.1525 L -48.9033,-25.3125  z M -28.6448,-25.3125 L -28.6448,-25.7365 L -26.1929,-25.7365 L -28.5178,-28.7745 L -28.5178,-29.1525 L -25.8009,-29.1525  L -25.8009,-28.7285 L -27.9278,-28.7285 L -25.6029,-25.7015 L -25.6029,-25.3125 z M -21.122,-25.3125 L -21.122,-25.7365 L -18.625,-25.7365 L -18.625,-27.0695 L -20.847,-27.0695 L -20.847,-27.4885  L -18.625,-27.4885 L -18.625,-28.7285 L -21.01,-28.7285 L -21.01,-29.1525 L -18.106,-29.1525 L -18.106,-25.3125  z M -36.4806,-25.3125 L -37.6946,-29.1525 L -37.1536,-29.1525 L -36.7112,-27.6977 L -36.4322,-26.7721 L -36.3166,-26.3755  L -36.2799,-26.2312 L -36.2366,-26.0608 L -36.1866,-25.8645 L -36.1596,-25.7695 L -36.0892,-26.0602 L -36.0036,-26.3908  L -35.9026,-26.7615 L -35.1856,-29.1525 L -34.6876,-29.1525 L -34.2774,-27.7942 L -34.0067,-26.8845 L -33.8756,-26.4235  L -33.8167,-26.1935 L -33.7627,-25.9755 L -33.7136,-25.7695 L -33.6359,-26.0898 L -33.5536,-26.4042 L -33.4666,-26.7125  L -32.7146,-29.1525 L -32.1726,-29.1525 L -33.3876,-25.3125 L -34.0076,-25.3125 L -34.429,-26.7356 L -34.696,-27.6463  L -34.8086,-28.0445 L -34.8465,-28.1979 L -34.8895,-28.3743 L -34.9376,-28.5735 L -35.0205,-28.2192 L -35.0891,-27.9455  L -35.1436,-27.7525 L -35.8606,-25.3125 z M -42.7687,-24.9005 L -43.1081,-24.9815 L -43.4127,-25.1165 L -43.6784,-25.3025 L -43.8994,-25.5352 L -44.0757,-25.8145  L -44.2041,-26.1344 L -44.2811,-26.4874 L -44.3067,-26.8735 L -44.2814,-27.2608 L -44.2054,-27.6122 L -44.0787,-27.9275  L -43.9041,-28.2013 L -43.6841,-28.4279 L -43.4187,-28.6075 L -43.114,-28.7375 L -42.7743,-28.8155 L -42.3997,-28.8415  L -41.843,-28.7835 L -41.374,-28.6095 L -40.9928,-28.3195 L -40.7122,-27.9273 L -40.5439,-27.4453 L -40.4878,-26.8735  L -40.5129,-26.4856 L -40.5882,-26.1313 L -40.7138,-25.8105 L -40.8876,-25.5309 L -41.1066,-25.299 L -41.3708,-25.1145  L -41.6761,-24.9806 L -42.0174,-24.9003 L -42.3947,-24.8735 z M -41.9931,-25.3418 L -41.6551,-25.4838 L -41.3798,-25.7205 L -41.177,-26.0384 L -41.0553,-26.4227 L -41.0148,-26.8735  L -41.0549,-27.3253 L -41.1752,-27.7046 L -41.3758,-28.0115 L -41.65,-28.237 L -41.9913,-28.3724 L -42.3997,-28.4175  L -42.8042,-28.3717 L -43.1429,-28.2344 L -43.4157,-28.0055 L -43.6157,-27.6971 L -43.7357,-27.3197 L -43.7757,-26.8735  L -43.7361,-26.4087 L -43.6171,-26.0197 L -43.4187,-25.7065 L -43.1462,-25.4776 L -42.8045,-25.3403 L -42.3937,-25.2945  z M -57.3451,-21.4725 L -57.3451,-21.9725 L -56.8961,-21.9725 L -56.8961,-21.4725 z M -58.3841,-21.4725 L -58.3841,-21.9725 L -57.9411,-21.9725 L -57.9411,-21.4725 z M -21.0761,-17.6875 L -21.0761,-21.5275 L -20.6081,-21.5275 L -20.6081,-19.0075 L -20.6118,-18.8148 L -20.6228,-18.5568  L -20.6411,-18.2335 L -18.5601,-21.5275 L -17.9571,-21.5275 L -17.9571,-17.6875 L -18.4191,-17.6875 L -18.4191,-20.2395  L -18.4051,-20.6955 L -18.3921,-20.9595 L -20.4511,-17.6875 z M -50.2361,-17.6875 L -50.2361,-21.5275 L -49.7171,-21.5275 L -49.7171,-17.6875 z M -4.41,-17.6875 L -4.81967,-17.7196 L -5.16467,-17.8159 L -5.44501,-17.9765 L -5.65224,-18.1955 L -5.77657,-18.4658  L -5.81801,-18.7875 L -5.79045,-19.0326 L -5.70779,-19.248 L -5.57001,-19.4335 L -5.38213,-19.5824 L -5.14778,-19.6864  L -4.867,-19.7455 L -5.08145,-19.814 L -5.26079,-19.9157 L -5.40501,-20.0505 L -5.51056,-20.2138 L -5.5739,-20.4012  L -5.59502,-20.6125 L -5.44524,-21.1208 L -4.9959,-21.4258 L -4.24701,-21.5275 L -2.85602,-21.5275 L -2.85602,-17.6875  z M -3.37503,-21.1115 L -4.24701,-21.1115 L -4.4939,-21.097 L -4.69856,-21.0537 L -4.86101,-20.9815 L -4.97879,-20.8756  L -5.04945,-20.7313 L -5.07301,-20.5485 L -5.05023,-20.3559 L -4.9819,-20.1996 L -4.86801,-20.0795 L -4.7079,-19.995  L -4.5009,-19.9444 L -4.24701,-19.9275 L -3.37503,-19.9275 z M -3.37503,-19.5225 L -4.34201,-19.5225 L -4.87035,-19.4452 L -5.18735,-19.2132 L -5.29301,-18.8265 L -5.26878,-18.6063  L -5.19612,-18.4256 L -5.07501,-18.2845 L -4.90167,-18.1839 L -4.67101,-18.1236 L -4.38301,-18.1035 L -3.37503,-18.1035  z M -27.0191,-17.6875 L -27.3752,-17.7138 L -27.7022,-17.7928 L -28.0001,-17.9245 L -28.2624,-18.1056 L -28.4814,-18.3329  L -28.6571,-18.6065 L -28.786,-18.9204 L -28.8633,-19.2674 L -28.8891,-19.6475 L -28.8301,-20.2029 L -28.6531,-20.6666  L -28.3581,-21.0385 L -27.9552,-21.3102 L -27.4532,-21.4732 L -26.8521,-21.5275 L -25.5821,-21.5275 L -25.5821,-17.6875  z M -26.1011,-21.1115 L -26.8411,-21.1115 L -27.2969,-21.0698 L -27.6749,-20.9448 L -27.9751,-20.7365 L -28.1929,-20.4488  L -28.3235,-20.0858 L -28.3671,-19.6475 L -28.348,-19.3448 L -28.2907,-19.0702 L -28.1951,-18.8235 L -28.0639,-18.6089  L -27.8996,-18.4306 L -27.7021,-18.2885 L -27.4768,-18.1857 L -27.2288,-18.1241 L -26.9581,-18.1035 L -26.1011,-18.1035  z M -43.997,-17.6875 L -43.997,-18.1115 L -41.5,-18.1115 L -41.5,-19.4445 L -43.722,-19.4445 L -43.722,-19.8635  L -41.5,-19.8635 L -41.5,-21.1035 L -43.885,-21.1035 L -43.885,-21.5275 L -40.981,-21.5275 L -40.981,-17.6875  z M -13.497,-17.6875 L -13.497,-18.1115 L -11,-18.1115 L -11,-19.4445 L -13.222,-19.4445 L -13.222,-19.8635  L -11,-19.8635 L -11,-21.1035 L -13.385,-21.1035 L -13.385,-21.5275 L -10.481,-21.5275 L -10.481,-17.6875  z M -34.9261,-19.2605 L -35.9241,-17.6875 L -36.5221,-17.6875 L -35.4311,-19.3205 L -35.7027,-19.396 L -35.932,-19.5196  L -36.1191,-19.6915 L -36.258,-19.9034 L -36.3413,-20.1457 L -36.3691,-20.4185 L -36.3299,-20.7416 L -36.2122,-21.0136  L -36.0161,-21.2345 L -35.7479,-21.3973 L -35.4139,-21.4949 L -35.0141,-21.5275 L -33.2071,-21.5275 L -33.2071,-17.6875  L -33.7261,-17.6875 L -33.7261,-19.2605 z M -33.7261,-21.1115 L -34.9631,-21.1115 L -35.2262,-21.0916 L -35.4449,-21.0319 L -35.6191,-20.9325 L -35.7458,-20.7957  L -35.8218,-20.6227 L -35.8471,-20.4135 L -35.8221,-20.1963 L -35.7471,-20.0139 L -35.6221,-19.8665 L -35.4512,-19.7582  L -35.2386,-19.6932 L -34.9841,-19.6715 L -33.7261,-19.6715 z M -57.9294,-17.2684 L -58.2131,-17.3281 L -58.4681,-17.4275 L -58.6911,-17.5645 L -58.8774,-17.7368 L -59.0271,-17.9445  L -59.1371,-18.1848 L -59.2031,-18.4538 L -59.2251,-18.7515 L -59.2251,-21.1525 L -58.7091,-21.1525 L -58.7091,-18.7795  L -58.6771,-18.4458 L -58.5811,-18.1702 L -58.4211,-17.9525 L -58.2034,-17.7953 L -57.9344,-17.701 L -57.6141,-17.6695  L -57.3038,-17.6998 L -57.0461,-17.7908 L -56.8411,-17.9425 L -56.6928,-18.1533 L -56.6038,-18.4203 L -56.5741,-18.7435  L -56.5741,-21.1525 L -56.0551,-21.1525 L -56.0551,-18.7015 L -56.0766,-18.4134 L -56.1409,-18.1531 L -56.2481,-17.9205  L -56.3949,-17.7192 L -56.5766,-17.5525 L -56.7931,-17.4205 L -57.0411,-17.325 L -57.3158,-17.2676 L -57.6171,-17.2485  z M -50.3044,-10.0497 L -50.5881,-10.1093 L -50.8431,-10.2088 L -51.0661,-10.3458 L -51.2524,-10.5181 L -51.4021,-10.7258  L -51.5121,-10.9661 L -51.5781,-11.2351 L -51.6001,-11.5328 L -51.6001,-13.9337 L -51.0841,-13.9337 L -51.0841,-11.5608  L -51.0521,-11.2271 L -50.9561,-10.9514 L -50.7961,-10.7338 L -50.5784,-10.5765 L -50.3094,-10.4822 L -49.9891,-10.4508  L -49.6788,-10.4811 L -49.4211,-10.5721 L -49.2161,-10.7238 L -49.0678,-10.9345 L -48.9788,-11.2015 L -48.9491,-11.5248  L -48.9491,-13.9337 L -48.4301,-13.9337 L -48.4301,-11.4828 L -48.4516,-11.1946 L -48.5159,-10.9343 L -48.6231,-10.7018  L -48.7699,-10.5004 L -48.9516,-10.3338 L -49.1681,-10.2018 L -49.4161,-10.1062 L -49.6908,-10.0489 L -49.9921,-10.0298  z M -28.7011,-10.0625 L -28.7011,-13.9025 L -28.1821,-13.9025 L -28.1821,-12.3025 L -26.1011,-12.3025 L -26.1011,-13.9025  L -25.5821,-13.9025 L -25.5821,-10.0625 L -26.1011,-10.0625 L -26.1011,-11.8675 L -28.1821,-11.8675 L -28.1821,-10.0625  z M -6.10001,-10.0625 L -4.56201,-13.9025 L -3.97203,-13.9025 L -2.41002,-10.0625 L -2.94803,-10.0625 L -3.38803,-11.1935  L -5.132,-11.1935 L -5.57001,-10.0625 z M -4.03502,-12.8555 L -4.11647,-13.0772 L -4.18347,-13.2702 L -4.23601,-13.4345 L -4.26001,-13.5105 L -4.33301,-13.2855  L -4.38423,-13.133 L -4.43523,-12.9917 L -4.48601,-12.8615 L -4.97801,-11.5985 L -3.54602,-11.5985 z M -21.122,-10.0625 L -21.122,-10.4865 L -18.625,-10.4865 L -18.625,-11.8195 L -20.847,-11.8195 L -20.847,-12.2385  L -18.625,-12.2385 L -18.625,-13.4785 L -21.01,-13.4785 L -21.01,-13.9025 L -18.106,-13.9025 L -18.106,-10.0625  z M -43.997,-10.0625 L -43.997,-10.4865 L -41.5,-10.4865 L -41.5,-11.8195 L -43.722,-11.8195 L -43.722,-12.2385  L -41.5,-12.2385 L -41.5,-13.4785 L -43.885,-13.4785 L -43.885,-13.9025 L -40.981,-13.9025 L -40.981,-10.0625  z M -59.2011,-10.0625 L -59.2011,-13.9025 L -58.7331,-13.9025 L -58.7331,-11.3825 L -58.7368,-11.1898 L -58.7478,-10.9318  L -58.7661,-10.6085 L -56.6851,-13.9025 L -56.0821,-13.9025 L -56.0821,-10.0625 L -56.5441,-10.0625 L -56.5441,-12.6145  L -56.5301,-13.0705 L -56.5171,-13.3345 L -58.5761,-10.0625 z M -36.3261,-10.0625 L -36.3261,-13.9025 L -35.8581,-13.9025 L -35.8581,-11.3825 L -35.8618,-11.1898 L -35.8728,-10.9318  L -35.8911,-10.6085 L -33.8101,-13.9025 L -33.2071,-13.9025 L -33.2071,-10.0625 L -33.6691,-10.0625 L -33.6691,-12.6145  L -33.6551,-13.0705 L -33.6421,-13.3345 L -35.7011,-10.0625 z M -13.3948,-10.0625 L -13.3948,-10.4865 L -10.9429,-10.4865 L -13.2678,-13.5245 L -13.2678,-13.9025 L -10.5509,-13.9025  L -10.5509,-13.4785 L -12.6778,-13.4785 L -10.3529,-10.4515 L -10.3529,-10.0625 z M -12.3928,-2.40195 L -12.7248,-2.48729 L -13.0261,-2.6295 L -13.2913,-2.82695 L -13.5137,-3.07661 L -13.6931,-3.37851  L -13.2691,-3.58951 L -12.9533,-3.15117 L -12.5487,-2.88817 L -12.0551,-2.80051 L -11.6635,-2.84851 L -11.3298,-2.99251  L -11.0541,-3.23251 L -10.8491,-3.55139 L -10.7261,-3.93207 L -10.6851,-4.3745 L -10.7246,-4.81915 L -10.8429,-5.19583  L -11.0401,-5.50449 L -11.3082,-5.73393 L -11.6392,-5.8716 L -12.0331,-5.9175 L -12.2921,-5.8985 L -12.5264,-5.84149  L -12.7361,-5.74649 L -12.9154,-5.61617 L -13.0588,-5.45183 L -13.1661,-5.25349 L -13.6581,-5.4135 L -13.5045,-5.69505  L -13.3026,-5.92638 L -13.0521,-6.1075 L -12.7557,-6.23749 L -12.4143,-6.31549 L -12.0281,-6.34149 L -11.4852,-6.28339  L -11.0272,-6.10905 L -10.6541,-5.8185 L -10.3786,-5.42593 L -10.2132,-4.94427 L -10.1581,-4.37349 L -10.1828,-3.98174  L -10.2568,-3.6264 L -10.3801,-3.30751 L -10.5506,-3.03062 L -10.7659,-2.79996 L -11.0261,-2.61551 L -11.3261,-2.48106  L -11.6608,-2.40039 L -12.0301,-2.3735 z M -43.997,-2.4375 L -43.997,-2.86151 L -41.5,-2.86151 L -41.5,-4.1945 L -43.722,-4.1945 L -43.722,-4.61349  L -41.5,-4.61349 L -41.5,-5.85349 L -43.885,-5.85349 L -43.885,-6.2775 L -40.981,-6.2775 L -40.981,-2.4375  z M -6.10001,-2.4375 L -4.56201,-6.2775 L -3.97203,-6.2775 L -2.41002,-2.4375 L -2.94803,-2.4375 L -3.38803,-3.56851  L -5.132,-3.56851 L -5.57001,-2.4375 z M -4.03502,-5.2305 L -4.11647,-5.45216 L -4.18347,-5.64516 L -4.23601,-5.80949 L -4.26001,-5.8855 L -4.33301,-5.66049  L -4.38423,-5.50804 L -4.43523,-5.36671 L -4.48601,-5.2365 L -4.97801,-3.97351 L -3.54602,-3.97351 z M -56.9019,-2.4375 L -56.9019,-3.9915 L -59.0318,-3.9915 L -59.0318,-4.42149 L -56.9019,-4.42149 L -56.9019,-5.85349  L -59.0968,-5.85349 L -59.0968,-6.2775 L -56.3829,-6.2775 L -56.3829,-2.4375 z M -21.0761,-2.4375 L -21.0761,-6.2775 L -20.5571,-6.2775 L -20.5571,-4.67749 L -18.4761,-4.67749 L -18.4761,-6.2775  L -17.9571,-6.2775 L -17.9571,-2.4375 L -18.4761,-2.4375 L -18.4761,-4.24251 L -20.5571,-4.24251 L -20.5571,-2.4375  z M -36.3261,-2.4375 L -36.3261,-6.2775 L -35.8581,-6.2775 L -35.8581,-3.75751 L -35.8618,-3.56483 L -35.8728,-3.30684  L -35.8911,-2.98351 L -33.8101,-6.2775 L -33.2071,-6.2775 L -33.2071,-2.4375 L -33.6691,-2.4375 L -33.6691,-4.98949  L -33.6551,-5.4455 L -33.6421,-5.70949 L -35.7011,-2.4375 z M -27.4078,-2.4375 L -27.4078,-5.85349 L -28.7528,-5.85349 L -28.7528,-6.2775 L -25.5539,-6.2775 L -25.5539,-5.85349  L -26.8909,-5.85349 L -26.8909,-2.4375 z M -51.3393,-2.4375 L -51.3393,-2.86151 L -49.4223,-2.86151 L -49.4223,-6.2775 L -48.9033,-6.2775 L -48.9033,-2.4375  z "
     stroke="black"
     fill="lightgray"
     stroke-width="0.5"
     id="path4784"
     style="fill:#000000;fill-opacity:1;stroke:#ffffff;stroke-opacity:1" />
</svg>
