<?xml version="1.0" encoding="UTF-8" standalone="no"?>
<svg
   xmlns:dc="http://purl.org/dc/elements/1.1/"
   xmlns:cc="http://creativecommons.org/ns#"
   xmlns:rdf="http://www.w3.org/1999/02/22-rdf-syntax-ns#"
   xmlns:svg="http://www.w3.org/2000/svg"
   xmlns="http://www.w3.org/2000/svg"
   xmlns:sodipodi="http://sodipodi.sourceforge.net/DTD/sodipodi-0.dtd"
   xmlns:inkscape="http://www.inkscape.org/namespaces/inkscape"
   width="74mm"
   height="74mm"
   viewBox="-68 -68 74 74"
   version="1.1"
   id="svg2"
   inkscape:version="0.91 r13725"
   sodipodi:docname="WordClock_en.svg">
  <metadata
     id="metadata12">
    <rdf:RDF>
      <cc:Work
         rdf:about="">
        <dc:format>image/svg+xml</dc:format>
        <dc:type
           rdf:resource="http://purl.org/dc/dcmitype/StillImage" />
        <dc:title>OpenSCAD Model</dc:title>
      </cc:Work>
    </rdf:RDF>
  </metadata>
  <defs
     id="defs10" />
  <sodipodi:namedview
     pagecolor="#ffffff"
     bordercolor="#666666"
     borderopacity="1"
     objecttolerance="10"
     gridtolerance="10"
     guidetolerance="10"
     inkscape:pageopacity="0"
     inkscape:pageshadow="2"
     inkscape:window-width="1375"
     inkscape:window-height="876"
     id="namedview8"
     showgrid="false"
     inkscape:zoom="0.90006006"
     inkscape:cx="131.10236"
     inkscape:cy="131.10236"
     inkscape:window-x="65"
     inkscape:window-y="24"
     inkscape:window-maximized="1"
     inkscape:current-layer="svg2" />
  <title
     id="title4">OpenSCAD Model</title>
  <path
     d=" M 6,-68 L -68,-68 L -68,6 L 6,6 z M -36.3261,-55.8125 L -36.3261,-59.6525 L -35.8581,-59.6525 L -35.8581,-57.1325 L -35.8618,-56.9398 L -35.8728,-56.6818  L -35.8911,-56.3585 L -33.8101,-59.6525 L -33.2071,-59.6525 L -33.2071,-55.8125 L -33.6691,-55.8125 L -33.6691,-58.3645  L -33.6551,-58.8205 L -33.6421,-59.0845 L -35.7011,-55.8125 z M -6.10001,-55.8125 L -4.56201,-59.6525 L -3.97203,-59.6525 L -2.41002,-55.8125 L -2.94803,-55.8125 L -3.38803,-56.9435  L -5.132,-56.9435 L -5.57001,-55.8125 z M -4.03502,-58.6055 L -4.11647,-58.8272 L -4.18347,-59.0202 L -4.23601,-59.1845 L -4.26001,-59.2605 L -4.33301,-59.0355  L -4.38423,-58.883 L -4.43523,-58.7417 L -4.48601,-58.6115 L -4.97801,-57.3485 L -3.54602,-57.3485 z M -21.2306,-55.8125 L -22.4446,-59.6525 L -21.9036,-59.6525 L -21.4612,-58.1977 L -21.1822,-57.2721 L -21.0666,-56.8755  L -21.0299,-56.7312 L -20.9866,-56.5608 L -20.9366,-56.3645 L -20.9096,-56.2695 L -20.8392,-56.5602 L -20.7536,-56.8908  L -20.6526,-57.2615 L -19.9356,-59.6525 L -19.4376,-59.6525 L -19.0274,-58.2942 L -18.7567,-57.3845 L -18.6256,-56.9235  L -18.5667,-56.6935 L -18.5127,-56.4755 L -18.4636,-56.2695 L -18.3859,-56.5898 L -18.3036,-56.9042 L -18.2166,-57.2125  L -17.4646,-59.6525 L -16.9226,-59.6525 L -18.1376,-55.8125 L -18.7576,-55.8125 L -19.179,-57.2356 L -19.446,-58.1463  L -19.5586,-58.5445 L -19.5965,-58.6979 L -19.6395,-58.8743 L -19.6876,-59.0735 L -19.7705,-58.7192 L -19.8391,-58.4455  L -19.8936,-58.2525 L -20.6106,-55.8125 z M -28.747,-55.8125 L -28.747,-56.2365 L -26.25,-56.2365 L -26.25,-57.5695 L -28.472,-57.5695 L -28.472,-57.9885  L -26.25,-57.9885 L -26.25,-59.2285 L -28.635,-59.2285 L -28.635,-59.6525 L -25.731,-59.6525 L -25.731,-55.8125  z M -57.5191,-55.8125 L -57.8752,-55.8388 L -58.2022,-55.9178 L -58.5001,-56.0495 L -58.7624,-56.2306 L -58.9814,-56.4579  L -59.1571,-56.7315 L -59.286,-57.0454 L -59.3633,-57.3924 L -59.3891,-57.7725 L -59.3301,-58.3279 L -59.1531,-58.7916  L -58.8581,-59.1635 L -58.4552,-59.4352 L -57.9532,-59.5982 L -57.3521,-59.6525 L -56.0821,-59.6525 L -56.0821,-55.8125  z M -56.6011,-59.2365 L -57.3411,-59.2365 L -57.7969,-59.1948 L -58.1749,-59.0698 L -58.4751,-58.8615 L -58.6929,-58.5738  L -58.8235,-58.2108 L -58.8671,-57.7725 L -58.848,-57.4698 L -58.7907,-57.1952 L -58.6951,-56.9485 L -58.5639,-56.7339  L -58.3996,-56.5556 L -58.2021,-56.4135 L -57.9768,-56.3107 L -57.7288,-56.2491 L -57.4581,-56.2285 L -56.6011,-56.2285  z M -50.205,-55.8125 L -50.205,-57.4045 L -51.615,-59.6525 L -51.045,-59.6525 L -49.952,-57.8225 L -48.838,-59.6525  L -48.267,-59.6525 L -49.689,-57.4045 L -49.689,-55.8125 z M -42.6578,-55.8125 L -42.6578,-59.2285 L -44.0028,-59.2285 L -44.0028,-59.6525 L -40.8039,-59.6525 L -40.8039,-59.2285  L -42.1409,-59.2285 L -42.1409,-55.8125 z M -12.1578,-55.8125 L -12.1578,-59.2285 L -13.5028,-59.2285 L -13.5028,-59.6525 L -10.3039,-59.6525 L -10.3039,-59.2285  L -11.6409,-59.2285 L -11.6409,-55.8125 z M -5.37186,-47.6389 L -5.53384,-47.6589 L -5.70074,-47.6923 L -5.70074,-48.0563 L -5.59296,-48.0368 L -5.4883,-48.0251  L -5.38673,-48.0213 L -5.21152,-48.0369 L -5.05785,-48.0839 L -4.92574,-48.1623 L -4.81274,-48.2758 L -4.71507,-48.4285  L -4.63274,-48.6203 L -5.0833,-48.7321 L -5.46297,-48.9398 L -5.77174,-49.2433 L -5.99951,-49.6268 L -6.13618,-50.0748  L -6.18175,-50.5872 L -6.1564,-50.9752 L -6.08041,-51.3272 L -5.95374,-51.6432 L -5.77907,-51.9181 L -5.55907,-52.1455  L -5.29375,-52.3252 L -4.98897,-52.4558 L -4.64929,-52.5341 L -4.27473,-52.5602 L -3.71797,-52.5021 L -3.24898,-52.3278  L -2.86775,-52.0372 L -2.5872,-51.6437 L -2.41887,-51.1604 L -2.36276,-50.5872 L -2.38565,-50.213 L -2.45432,-49.8704  L -2.56876,-49.5593 L -2.72731,-49.2855 L -2.92697,-49.0548 L -3.16776,-48.8673 L -3.44565,-48.7265 L -3.75664,-48.6348  L -4.10075,-48.5923 L -4.22418,-48.2799 L -4.36919,-48.0336 L -4.53574,-47.8533 L -4.72986,-47.7305 L -4.95619,-47.6568  L -5.21474,-47.6323 z M -3.86809,-49.0507 L -3.53009,-49.193 L -3.25476,-49.4303 L -3.05197,-49.749 L -2.93031,-50.1347 L -2.88976,-50.5872  L -2.92987,-51.0408 L -3.0502,-51.4215 L -3.25076,-51.7292 L -3.52498,-51.9554 L -3.86632,-52.091 L -4.27473,-52.1362  L -4.67918,-52.0903 L -5.01785,-51.9527 L -5.29074,-51.7232 L -5.49074,-51.4139 L -5.61073,-51.0352 L -5.65074,-50.5872  L -5.61107,-50.1212 L -5.49208,-49.7313 L -5.29375,-49.4173 L -5.02118,-49.1873 L -4.67952,-49.0493 L -4.26874,-49.0033  z M -12.1794,-48.1747 L -12.4631,-48.2343 L -12.7181,-48.3338 L -12.9411,-48.4708 L -13.1274,-48.6431 L -13.2771,-48.8508  L -13.3871,-49.0911 L -13.4531,-49.3601 L -13.4751,-49.6578 L -13.4751,-52.0587 L -12.9591,-52.0587 L -12.9591,-49.6858  L -12.9271,-49.3521 L -12.8311,-49.0764 L -12.6711,-48.8588 L -12.4534,-48.7015 L -12.1844,-48.6072 L -11.8641,-48.5758  L -11.5538,-48.6061 L -11.2961,-48.6971 L -11.0911,-48.8488 L -10.9428,-49.0595 L -10.8538,-49.3265 L -10.8241,-49.6498  L -10.8241,-52.0587 L -10.3051,-52.0587 L -10.3051,-49.6078 L -10.3266,-49.3196 L -10.3909,-49.0593 L -10.4981,-48.8268  L -10.6449,-48.6254 L -10.8266,-48.4588 L -11.0431,-48.3268 L -11.2911,-48.2312 L -11.5658,-48.1739 L -11.8671,-48.1548  z M -51.7721,-48.1875 L -50.6811,-49.8205 L -50.9527,-49.896 L -51.182,-50.0196 L -51.3691,-50.1915 L -51.508,-50.4034  L -51.5913,-50.6457 L -51.6191,-50.9185 L -51.5799,-51.2416 L -51.4622,-51.5136 L -51.2661,-51.7345 L -50.9979,-51.8973  L -50.6639,-51.9949 L -50.2641,-52.0275 L -48.4571,-52.0275 L -48.4571,-48.1875 L -48.9761,-48.1875 L -48.9761,-49.7605  L -50.1761,-49.7605 L -51.1741,-48.1875 z M -48.9761,-51.6115 L -50.2131,-51.6115 L -50.4762,-51.5916 L -50.6949,-51.5319 L -50.8691,-51.4325 L -50.9958,-51.2957  L -51.0718,-51.1227 L -51.0971,-50.9135 L -51.0721,-50.6963 L -50.9971,-50.5139 L -50.8721,-50.3665 L -50.7012,-50.2582  L -50.4886,-50.1932 L -50.2341,-50.1715 L -48.9761,-50.1715 z M -21.35,-48.1875 L -19.812,-52.0275 L -19.222,-52.0275 L -17.66,-48.1875 L -18.198,-48.1875 L -18.638,-49.3185  L -20.382,-49.3185 L -20.82,-48.1875 z M -19.285,-50.9805 L -19.3665,-51.2022 L -19.4335,-51.3952 L -19.486,-51.5595 L -19.51,-51.6355 L -19.583,-51.4105  L -19.6342,-51.258 L -19.6852,-51.1167 L -19.736,-50.9865 L -20.228,-49.7235 L -18.796,-49.7235 z M -28.8971,-48.1875 L -27.8061,-49.8205 L -28.0777,-49.896 L -28.307,-50.0196 L -28.4941,-50.1915 L -28.633,-50.4034  L -28.7163,-50.6457 L -28.7441,-50.9185 L -28.7049,-51.2416 L -28.5872,-51.5136 L -28.3911,-51.7345 L -28.1229,-51.8973  L -27.7889,-51.9949 L -27.3891,-52.0275 L -25.5821,-52.0275 L -25.5821,-48.1875 L -26.1011,-48.1875 L -26.1011,-49.7605  L -27.3011,-49.7605 L -28.2991,-48.1875 z M -26.1011,-51.6115 L -27.3381,-51.6115 L -27.6012,-51.5916 L -27.8199,-51.5319 L -27.9941,-51.4325 L -28.1208,-51.2957  L -28.1968,-51.1227 L -28.2221,-50.9135 L -28.1971,-50.6963 L -28.1221,-50.5139 L -27.9971,-50.3665 L -27.8262,-50.2582  L -27.6136,-50.1932 L -27.3591,-50.1715 L -26.1011,-50.1715 z M -57.83,-48.1875 L -57.83,-49.7795 L -59.24,-52.0275 L -58.67,-52.0275 L -57.577,-50.1975 L -56.463,-52.0275  L -55.892,-52.0275 L -57.314,-49.7795 L -57.314,-48.1875 z M -35.0328,-48.1875 L -35.0328,-51.6035 L -36.3778,-51.6035 L -36.3778,-52.0275 L -33.1789,-52.0275 L -33.1789,-51.6035  L -34.5159,-51.6035 L -34.5159,-48.1875 z M -43.997,-48.1875 L -43.997,-48.6115 L -41.5,-48.6115 L -41.5,-49.9445 L -43.722,-49.9445 L -43.722,-50.3635  L -41.5,-50.3635 L -41.5,-51.6035 L -43.885,-51.6035 L -43.885,-52.0275 L -40.981,-52.0275 L -40.981,-48.1875  z M -51.3393,-40.5625 L -51.3393,-40.9865 L -49.4223,-40.9865 L -49.4223,-44.4025 L -48.9033,-44.4025 L -48.9033,-40.5625  z M -44.225,-40.5625 L -42.687,-44.4025 L -42.097,-44.4025 L -40.535,-40.5625 L -41.073,-40.5625 L -41.513,-41.6935  L -43.257,-41.6935 L -43.695,-40.5625 z M -42.16,-43.3555 L -42.2415,-43.5772 L -42.3085,-43.7702 L -42.361,-43.9345 L -42.385,-44.0105 L -42.458,-43.7855  L -42.5092,-43.633 L -42.5602,-43.4917 L -42.611,-43.3615 L -43.103,-42.0985 L -41.671,-42.0985 z M -56.9019,-40.5625 L -56.9019,-42.1165 L -59.0318,-42.1165 L -59.0318,-42.5465 L -56.9019,-42.5465 L -56.9019,-43.9785  L -59.0968,-43.9785 L -59.0968,-44.4025 L -56.3829,-44.4025 L -56.3829,-40.5625 z M -36.3261,-40.5625 L -36.3261,-44.4025 L -35.8071,-44.4025 L -35.8071,-42.8025 L -33.7261,-42.8025 L -33.7261,-44.4025  L -33.2071,-44.4025 L -33.2071,-40.5625 L -33.7261,-40.5625 L -33.7261,-42.3675 L -35.8071,-42.3675 L -35.8071,-40.5625  z M -3.52686,-40.5625 L -3.52686,-42.1165 L -5.65685,-42.1165 L -5.65685,-42.5465 L -3.52686,-42.5465 L -3.52686,-43.9785  L -5.72185,-43.9785 L -5.72185,-44.4025 L -3.00786,-44.4025 L -3.00786,-40.5625 z M -28.747,-40.5625 L -28.747,-40.9865 L -26.25,-40.9865 L -26.25,-42.3195 L -28.472,-42.3195 L -28.472,-42.7385  L -26.25,-42.7385 L -26.25,-43.9785 L -28.635,-43.9785 L -28.635,-44.4025 L -25.731,-44.4025 L -25.731,-40.5625  z M -19.774,-40.5625 L -21.337,-44.4025 L -20.791,-44.4025 L -19.736,-41.6985 L -19.508,-41.0195 L -19.28,-41.6985  L -18.22,-44.4025 L -17.673,-44.4025 L -19.236,-40.5625 z M -12.1111,-40.5625 L -12.1111,-44.4025 L -11.5921,-44.4025 L -11.5921,-40.5625 z M -42.7687,-32.9005 L -43.1081,-32.9815 L -43.4127,-33.1165 L -43.6784,-33.3025 L -43.8994,-33.5352 L -44.0757,-33.8145  L -44.2041,-34.1344 L -44.2811,-34.4874 L -44.3067,-34.8735 L -44.2814,-35.2608 L -44.2054,-35.6122 L -44.0787,-35.9275  L -43.9041,-36.2013 L -43.6841,-36.4279 L -43.4187,-36.6075 L -43.114,-36.7375 L -42.7743,-36.8155 L -42.3997,-36.8415  L -41.843,-36.7835 L -41.374,-36.6095 L -40.9928,-36.3195 L -40.7122,-35.9273 L -40.5439,-35.4453 L -40.4878,-34.8735  L -40.5129,-34.4856 L -40.5882,-34.1313 L -40.7138,-33.8105 L -40.8876,-33.5309 L -41.1066,-33.299 L -41.3708,-33.1145  L -41.6761,-32.9806 L -42.0174,-32.9003 L -42.3947,-32.8735 z M -41.9931,-33.3418 L -41.6551,-33.4838 L -41.3798,-33.7205 L -41.177,-34.0384 L -41.0553,-34.4227 L -41.0148,-34.8735  L -41.0549,-35.3253 L -41.1752,-35.7046 L -41.3758,-36.0115 L -41.65,-36.237 L -41.9913,-36.3724 L -42.3997,-36.4175  L -42.8042,-36.3717 L -43.1429,-36.2344 L -43.4157,-36.0055 L -43.6157,-35.6971 L -43.7357,-35.3197 L -43.7757,-34.8735  L -43.7361,-34.4087 L -43.6171,-34.0197 L -43.4187,-33.7065 L -43.1462,-33.4776 L -42.8045,-33.3403 L -42.3937,-33.2945  z M -58.0187,-32.9005 L -58.3581,-32.9815 L -58.6627,-33.1165 L -58.9284,-33.3025 L -59.1494,-33.5352 L -59.3257,-33.8145  L -59.4541,-34.1344 L -59.5311,-34.4874 L -59.5567,-34.8735 L -59.5314,-35.2608 L -59.4554,-35.6122 L -59.3287,-35.9275  L -59.1541,-36.2013 L -58.9341,-36.4279 L -58.6687,-36.6075 L -58.364,-36.7375 L -58.0243,-36.8155 L -57.6497,-36.8415  L -57.093,-36.7835 L -56.624,-36.6095 L -56.2428,-36.3195 L -55.9622,-35.9273 L -55.7939,-35.4453 L -55.7378,-34.8735  L -55.7629,-34.4856 L -55.8382,-34.1313 L -55.9638,-33.8105 L -56.1376,-33.5309 L -56.3566,-33.299 L -56.6208,-33.1145  L -56.9261,-32.9806 L -57.2674,-32.9003 L -57.6447,-32.8735 z M -57.2431,-33.3418 L -56.9051,-33.4838 L -56.6298,-33.7205 L -56.427,-34.0384 L -56.3053,-34.4227 L -56.2648,-34.8735  L -56.3049,-35.3253 L -56.4252,-35.7046 L -56.6258,-36.0115 L -56.9,-36.237 L -57.2413,-36.3724 L -57.6497,-36.4175  L -58.0542,-36.3717 L -58.3929,-36.2344 L -58.6657,-36.0055 L -58.8657,-35.6971 L -58.9857,-35.3197 L -59.0257,-34.8735  L -58.9861,-34.4087 L -58.8671,-34.0197 L -58.6687,-33.7065 L -58.3962,-33.4776 L -58.0545,-33.3403 L -57.6437,-33.2945  z M -27.6133,-32.9061 L -28.0023,-33.0037 L -28.316,-33.1665 L -28.5466,-33.3885 L -28.6849,-33.6638 L -28.731,-33.9925  L -28.7245,-34.1271 L -28.7048,-34.2494 L -28.672,-34.3595 L -28.6283,-34.459 L -28.5747,-34.5493 L -28.511,-34.6305  L -28.4382,-34.7032 L -28.3572,-34.7678 L -28.268,-34.8245 L -28.1723,-34.8754 L -28.072,-34.9214 L -27.967,-34.9625  L -27.8587,-34.9999 L -27.747,-35.0336 L -27.632,-35.0635 L -27.5151,-35.0919 L -27.3978,-35.1199 L -27.28,-35.1475  L -26.9676,-35.2219 L -26.7329,-35.2879 L -26.576,-35.3455 L -26.4673,-35.4034 L -26.3769,-35.4691 L -26.305,-35.5425  L -26.2534,-35.6273 L -26.2224,-35.7256 L -26.212,-35.8375 L -26.2388,-36.0239 L -26.3191,-36.1766 L -26.453,-36.2955  L -26.6385,-36.381 L -26.8721,-36.4324 L -27.154,-36.4495 L -27.4125,-36.4342 L -27.6304,-36.3882 L -27.808,-36.3115  L -27.949,-36.2016 L -28.056,-36.0546 L -28.129,-35.8705 L -28.641,-35.9605 L -28.5255,-36.2499 L -28.3641,-36.4769  L -28.157,-36.6415 L -27.8929,-36.7526 L -27.5606,-36.8193 L -27.16,-36.8415 L -26.7287,-36.8117 L -26.3694,-36.7224  L -26.082,-36.5735 L -25.8731,-36.3695 L -25.7478,-36.1148 L -25.706,-35.8095 L -25.714,-35.6709 L -25.738,-35.5433  L -25.778,-35.4265 L -25.8331,-35.3198 L -25.9025,-35.2225 L -25.986,-35.1345 L -26.0877,-35.0544 L -26.2114,-34.9794  L -26.357,-34.9095 L -26.538,-34.8422 L -26.7677,-34.7748 L -27.046,-34.7075 L -27.2148,-34.6678 L -27.3731,-34.6302  L -27.521,-34.5945 L -27.6577,-34.5571 L -27.781,-34.5141 L -27.891,-34.4655 L -27.9866,-34.4102 L -28.0666,-34.3455  L -28.131,-34.2715 L -28.1788,-34.1855 L -28.2075,-34.0835 L -28.217,-33.9655 L -28.1867,-33.7583 L -28.0957,-33.5873  L -27.944,-33.4525 L -27.7365,-33.3558 L -27.4778,-33.2978 L -27.168,-33.2785 L -26.8666,-33.2965 L -26.6102,-33.3505  L -26.399,-33.4405 L -26.2327,-33.5688 L -26.1097,-33.7378 L -26.03,-33.9475 L -25.527,-33.8465 L -25.8064,-33.306  L -26.347,-32.9816 L -27.149,-32.8735 z M -21.35,-32.9375 L -19.812,-36.7775 L -19.222,-36.7775 L -17.66,-32.9375 L -18.198,-32.9375 L -18.638,-34.0685  L -20.382,-34.0685 L -20.82,-32.9375 z M -19.285,-35.7305 L -19.3665,-35.9522 L -19.4335,-36.1452 L -19.486,-36.3095 L -19.51,-36.3855 L -19.583,-36.1605  L -19.6342,-36.008 L -19.6852,-35.8667 L -19.736,-35.7365 L -20.228,-34.4735 L -18.796,-34.4735 z M -51.7721,-32.9375 L -50.6811,-34.5705 L -50.9527,-34.646 L -51.182,-34.7696 L -51.3691,-34.9415 L -51.508,-35.1534  L -51.5913,-35.3957 L -51.6191,-35.6685 L -51.5799,-35.9916 L -51.4622,-36.2636 L -51.2661,-36.4845 L -50.9979,-36.6473  L -50.6639,-36.7449 L -50.2641,-36.7775 L -48.4571,-36.7775 L -48.4571,-32.9375 L -48.9761,-32.9375 L -48.9761,-34.5105  L -50.1761,-34.5105 L -51.1741,-32.9375 z M -48.9761,-36.3615 L -50.2131,-36.3615 L -50.4762,-36.3416 L -50.6949,-36.2819 L -50.8691,-36.1825 L -50.9958,-36.0457  L -51.0718,-35.8727 L -51.0971,-35.6635 L -51.0721,-35.4463 L -50.9971,-35.2639 L -50.8721,-35.1165 L -50.7012,-35.0082  L -50.4886,-34.9432 L -50.2341,-34.9215 L -48.9761,-34.9215 z M -4.14412,-32.9375 L -4.50021,-32.9638 L -4.82722,-33.0428 L -5.12511,-33.1745 L -5.38744,-33.3556 L -5.60645,-33.5829  L -5.7821,-33.8565 L -5.911,-34.1704 L -5.98833,-34.5174 L -6.01411,-34.8975 L -5.95511,-35.4529 L -5.77811,-35.9166  L -5.48311,-36.2885 L -5.08022,-36.5602 L -4.57822,-36.7232 L -3.97713,-36.7775 L -2.70712,-36.7775 L -2.70712,-32.9375  z M -3.22612,-36.3615 L -3.96613,-36.3615 L -4.42189,-36.3198 L -4.79988,-36.1948 L -5.10011,-35.9865 L -5.31789,-35.6988  L -5.44855,-35.3358 L -5.49211,-34.8975 L -5.47299,-34.5948 L -5.41566,-34.3202 L -5.32011,-34.0735 L -5.18889,-33.8589  L -5.02455,-33.6806 L -4.8271,-33.5385 L -4.60178,-33.4357 L -4.35378,-33.3741 L -4.08313,-33.3535 L -3.22612,-33.3535  z M -11,-32.9375 L -11,-34.4465 L -12.125,-34.4465 L -12.5027,-34.4821 L -12.8237,-34.5887 L -13.088,-34.7665  L -13.2852,-35.0045 L -13.4036,-35.2918 L -13.443,-35.6285 L -13.4037,-35.9658 L -13.2857,-36.2485 L -13.089,-36.4765  L -12.8214,-36.6437 L -12.489,-36.744 L -12.092,-36.7775 L -10.481,-36.7775 L -10.481,-32.9375 z M -11,-36.3615 L -12.03,-36.3615 L -12.525,-36.2795 L -12.822,-36.0335 L -12.921,-35.6235 L -12.8244,-35.1979  L -12.5348,-34.9426 L -12.052,-34.8575 L -11,-34.8575 z M -35.0328,-32.9375 L -35.0328,-36.3535 L -36.3778,-36.3535 L -36.3778,-36.7775 L -33.1789,-36.7775 L -33.1789,-36.3535  L -34.5159,-36.3535 L -34.5159,-32.9375 z M -42.7814,-25.2675 L -43.1024,-25.3245 L -43.4067,-25.4195 L -43.6874,-25.5492 L -43.9374,-25.7102 L -44.1567,-25.9025  L -44.1567,-27.2325 L -42.5257,-27.2325 L -42.5257,-26.7975 L -43.6787,-26.7975 L -43.6787,-26.0985 L -43.5296,-25.9756  L -43.353,-25.871 L -43.1487,-25.7845 L -42.9251,-25.7206 L -42.6901,-25.6823 L -42.4437,-25.6695 L -42.0338,-25.7165  L -41.6878,-25.8575 L -41.4058,-26.0925 L -41.1974,-26.4094 L -41.0724,-26.7947 L -41.0308,-27.2485 L -41.07,-27.7017  L -41.1876,-28.0814 L -41.3838,-28.3875 L -41.6541,-28.6125 L -41.9944,-28.7475 L -42.4047,-28.7925 L -42.6757,-28.7765  L -42.9154,-28.7285 L -43.1237,-28.6485 L -43.3025,-28.5343 L -43.4535,-28.3823 L -43.5767,-28.1925 L -44.0717,-28.3355  L -43.9074,-28.6154 L -43.7024,-28.8391 L -43.4567,-29.0065 L -43.1641,-29.1232 L -42.8181,-29.1932 L -42.4187,-29.2165  L -41.8573,-29.1593 L -41.3863,-28.9876 L -41.0058,-28.7015 L -40.7269,-28.3116 L -40.5595,-27.8273 L -40.5038,-27.2485  L -40.5294,-26.8576 L -40.6064,-26.5023 L -40.7348,-26.1825 L -40.9117,-25.9046 L -41.1343,-25.6736 L -41.4028,-25.4895  L -41.7126,-25.3556 L -42.0596,-25.2753 L -42.4437,-25.2485 z M -3.52686,-25.3125 L -3.52686,-26.8665 L -5.65685,-26.8665 L -5.65685,-27.2965 L -3.52686,-27.2965 L -3.52686,-28.7285  L -5.72185,-28.7285 L -5.72185,-29.1525 L -3.00786,-29.1525 L -3.00786,-25.3125 z M -28.747,-25.3125 L -28.747,-25.7365 L -26.25,-25.7365 L -26.25,-27.0695 L -28.472,-27.0695 L -28.472,-27.4885  L -26.25,-27.4885 L -26.25,-28.7285 L -28.635,-28.7285 L -28.635,-29.1525 L -25.731,-29.1525 L -25.731,-25.3125  z M -51.5761,-25.3125 L -51.5761,-29.1525 L -51.0571,-29.1525 L -51.0571,-27.5525 L -48.9761,-27.5525 L -48.9761,-29.1525  L -48.4571,-29.1525 L -48.4571,-25.3125 L -48.9761,-25.3125 L -48.9761,-27.1175 L -51.0571,-27.1175 L -51.0571,-25.3125  z M -19.774,-25.3125 L -21.337,-29.1525 L -20.791,-29.1525 L -19.736,-26.4485 L -19.508,-25.7695 L -19.28,-26.4485  L -18.22,-29.1525 L -17.673,-29.1525 L -19.236,-25.3125 z M -12.1111,-25.3125 L -12.1111,-29.1525 L -11.5921,-29.1525 L -11.5921,-25.3125 z M -34.9861,-25.3125 L -34.9861,-29.1525 L -34.4671,-29.1525 L -34.4671,-25.3125 z M -57.9078,-25.3125 L -57.9078,-28.7285 L -59.2528,-28.7285 L -59.2528,-29.1525 L -56.0539,-29.1525 L -56.0539,-28.7285  L -57.3909,-28.7285 L -57.3909,-25.3125 z M -4.73834,-17.6561 L -5.12735,-17.7537 L -5.44101,-17.9165 L -5.67157,-18.1385 L -5.80991,-18.4138 L -5.856,-18.7425  L -5.84946,-18.8771 L -5.82979,-18.9994 L -5.79701,-19.1095 L -5.75334,-19.209 L -5.69968,-19.2993 L -5.63602,-19.3805  L -5.56323,-19.4532 L -5.48224,-19.5178 L -5.39301,-19.5745 L -5.29735,-19.6254 L -5.19701,-19.6714 L -5.09201,-19.7125  L -4.98367,-19.7499 L -4.87201,-19.7836 L -4.757,-19.8135 L -4.64012,-19.8419 L -4.52278,-19.8699 L -4.40501,-19.8975  L -4.09258,-19.9719 L -3.85791,-20.0379 L -3.70102,-20.0955 L -3.59225,-20.1534 L -3.50191,-20.2191 L -3.43002,-20.2925  L -3.37836,-20.3773 L -3.34735,-20.4756 L -3.33702,-20.5875 L -3.3638,-20.7739 L -3.44414,-20.9266 L -3.57802,-21.0455  L -3.76347,-21.131 L -3.99713,-21.1824 L -4.27901,-21.1995 L -4.53746,-21.1842 L -4.75545,-21.1382 L -4.93301,-21.0615  L -5.07401,-20.9516 L -5.18102,-20.8046 L -5.25401,-20.6205 L -5.76601,-20.7105 L -5.65045,-20.9999 L -5.48912,-21.2269  L -5.28201,-21.3915 L -5.0179,-21.5026 L -4.68556,-21.5693 L -4.285,-21.5915 L -3.8537,-21.5617 L -3.49435,-21.4724  L -3.20703,-21.3235 L -2.99814,-21.1195 L -2.8728,-20.8648 L -2.83102,-20.5595 L -2.83902,-20.4209 L -2.86302,-20.2933  L -2.90303,-20.1765 L -2.95813,-20.0698 L -3.02747,-19.9725 L -3.11102,-19.8845 L -3.21269,-19.8044 L -3.33636,-19.7294  L -3.48203,-19.6595 L -3.66302,-19.5922 L -3.89268,-19.5248 L -4.17102,-19.4575 L -4.33978,-19.4178 L -4.49812,-19.3802  L -4.64601,-19.3445 L -4.78267,-19.3071 L -4.90601,-19.2641 L -5.01601,-19.2155 L -5.11157,-19.1602 L -5.19156,-19.0955  L -5.25601,-19.0215 L -5.30379,-18.9355 L -5.33246,-18.8335 L -5.34201,-18.7155 L -5.31168,-18.5083 L -5.22067,-18.3373  L -5.06902,-18.2025 L -4.86145,-18.1058 L -4.60278,-18.0478 L -4.29301,-18.0285 L -3.99158,-18.0465 L -3.73524,-18.1005  L -3.52402,-18.1905 L -3.3577,-18.3188 L -3.2347,-18.4878 L -3.15503,-18.6975 L -2.65202,-18.5965 L -2.93135,-18.056  L -3.47203,-17.7316 L -4.27402,-17.6235 z M -59.247,-17.6875 L -59.247,-18.1115 L -56.75,-18.1115 L -56.75,-19.4445 L -58.972,-19.4445 L -58.972,-19.8635  L -56.75,-19.8635 L -56.75,-21.1035 L -59.135,-21.1035 L -59.135,-21.5275 L -56.231,-21.5275 L -56.231,-17.6875  z M -44.1471,-17.6875 L -43.0561,-19.3205 L -43.3277,-19.396 L -43.557,-19.5196 L -43.7441,-19.6915 L -43.883,-19.9034  L -43.9663,-20.1457 L -43.9941,-20.4185 L -43.9549,-20.7416 L -43.8372,-21.0136 L -43.6411,-21.2345 L -43.3729,-21.3973  L -43.0389,-21.4949 L -42.6391,-21.5275 L -40.8321,-21.5275 L -40.8321,-17.6875 L -41.3511,-17.6875 L -41.3511,-19.2605  L -42.5511,-19.2605 L -43.5491,-17.6875 z M -41.3511,-21.1115 L -42.5881,-21.1115 L -42.8512,-21.0916 L -43.0699,-21.0319 L -43.2441,-20.9325 L -43.3708,-20.7957  L -43.4468,-20.6227 L -43.4721,-20.4135 L -43.4471,-20.1963 L -43.3721,-20.0139 L -43.2471,-19.8665 L -43.0762,-19.7582  L -42.8636,-19.6932 L -42.6091,-19.6715 L -41.3511,-19.6715 z M -21.244,-17.6875 L -19.823,-19.7015 L -21.133,-21.5275 L -20.56,-21.5275 L -19.524,-20.0205 L -18.458,-21.5275  L -17.885,-21.5275 L -19.231,-19.6825 L -17.774,-17.6875 L -18.348,-17.6875 L -19.521,-19.3665 L -20.67,-17.6875  z M -51.622,-17.6875 L -51.622,-18.1115 L -49.125,-18.1115 L -49.125,-19.4445 L -51.347,-19.4445 L -51.347,-19.8635  L -49.125,-19.8635 L -49.125,-21.1035 L -51.51,-21.1035 L -51.51,-21.5275 L -48.606,-21.5275 L -48.606,-17.6875  z M -36.3261,-17.6875 L -36.3261,-21.5275 L -35.8071,-21.5275 L -35.8071,-19.9275 L -33.7261,-19.9275 L -33.7261,-21.5275  L -33.2071,-21.5275 L -33.2071,-17.6875 L -33.7261,-17.6875 L -33.7261,-19.4925 L -35.8071,-19.4925 L -35.8071,-17.6875  z M -12.1111,-17.6875 L -12.1111,-21.5275 L -11.5921,-21.5275 L -11.5921,-17.6875 z M -27.4078,-17.6875 L -27.4078,-21.1035 L -28.7528,-21.1035 L -28.7528,-21.5275 L -25.5539,-21.5275 L -25.5539,-21.1035  L -26.8909,-21.1035 L -26.8909,-17.6875 z M -13.6056,-10.0625 L -14.8196,-13.9025 L -14.2786,-13.9025 L -13.8362,-12.4477 L -13.5572,-11.5221 L -13.4416,-11.1255  L -13.4049,-10.9812 L -13.3616,-10.8108 L -13.3116,-10.6145 L -13.2846,-10.5195 L -13.2142,-10.8102 L -13.1286,-11.1408  L -13.0276,-11.5115 L -12.3106,-13.9025 L -11.8126,-13.9025 L -11.4024,-12.5442 L -11.1317,-11.6345 L -11.0006,-11.1735  L -10.9417,-10.9435 L -10.8877,-10.7255 L -10.8386,-10.5195 L -10.7609,-10.8398 L -10.6786,-11.1542 L -10.5916,-11.4625  L -9.83958,-13.9025 L -9.29758,-13.9025 L -10.5126,-10.0625 L -11.1326,-10.0625 L -11.554,-11.4856 L -11.821,-12.3963  L -11.9336,-12.7945 L -11.9715,-12.9479 L -12.0145,-13.1243 L -12.0626,-13.3235 L -12.1455,-12.9692 L -12.2141,-12.6955  L -12.2686,-12.5025 L -12.9856,-10.0625 z M -51.622,-10.0625 L -51.622,-10.4865 L -49.125,-10.4865 L -49.125,-11.8195 L -51.347,-11.8195 L -51.347,-12.2385  L -49.125,-12.2385 L -49.125,-13.4785 L -51.51,-13.4785 L -51.51,-13.9025 L -48.606,-13.9025 L -48.606,-10.0625  z M -21.122,-10.0625 L -21.122,-10.4865 L -18.625,-10.4865 L -18.625,-11.8195 L -20.847,-11.8195 L -20.847,-12.2385  L -18.625,-12.2385 L -18.625,-13.4785 L -21.01,-13.4785 L -21.01,-13.9025 L -18.106,-13.9025 L -18.106,-10.0625  z M -36.372,-10.0625 L -36.372,-10.4865 L -33.875,-10.4865 L -33.875,-11.8195 L -36.097,-11.8195 L -36.097,-12.2385  L -33.875,-12.2385 L -33.875,-13.4785 L -36.26,-13.4785 L -36.26,-13.9025 L -33.356,-13.9025 L -33.356,-10.0625  z M -59.2011,-10.0625 L -59.2011,-13.9025 L -58.7331,-13.9025 L -58.7331,-11.3825 L -58.7368,-11.1898 L -58.7478,-10.9318  L -58.7661,-10.6085 L -56.6851,-13.9025 L -56.0821,-13.9025 L -56.0821,-10.0625 L -56.5441,-10.0625 L -56.5441,-12.6145  L -56.5301,-13.0705 L -56.5171,-13.3345 L -58.5761,-10.0625 z M -28.4643,-10.0625 L -28.4643,-10.4865 L -26.5473,-10.4865 L -26.5473,-13.9025 L -26.0283,-13.9025 L -26.0283,-10.0625  z M -4.53284,-10.0625 L -4.53284,-13.4785 L -5.87784,-13.4785 L -5.87784,-13.9025 L -2.67886,-13.9025 L -2.67886,-13.4785  L -4.01585,-13.4785 L -4.01585,-10.0625 z M -42.649,-10.0625 L -44.212,-13.9025 L -43.666,-13.9025 L -42.611,-11.1985 L -42.383,-10.5195 L -42.155,-11.1985  L -41.095,-13.9025 L -40.548,-13.9025 L -42.111,-10.0625 z M -12.2687,-2.40051 L -12.6081,-2.48151 L -12.9127,-2.6165 L -13.1784,-2.80251 L -13.3994,-3.03517 L -13.5757,-3.31451  L -13.7041,-3.6344 L -13.7811,-3.9874 L -13.8067,-4.37349 L -13.7814,-4.76082 L -13.7054,-5.11215 L -13.5787,-5.42749  L -13.4041,-5.70126 L -13.1841,-5.92793 L -12.9187,-6.1075 L -12.614,-6.23749 L -12.2743,-6.31549 L -11.8997,-6.34149  L -11.343,-6.28349 L -10.874,-6.1095 L -10.4928,-5.81949 L -10.2122,-5.42728 L -10.0439,-4.94527 L -9.98776,-4.37349  L -10.0129,-3.98563 L -10.0882,-3.63129 L -10.2138,-3.3105 L -10.3876,-3.03094 L -10.6066,-2.79895 L -10.8708,-2.6145  L -11.1761,-2.48062 L -11.5174,-2.40028 L -11.8947,-2.3735 z M -11.4931,-2.84184 L -11.1551,-2.98384 L -10.8798,-3.2205 L -10.677,-3.53839 L -10.5553,-3.92273 L -10.5148,-4.37349  L -10.5549,-4.82527 L -10.6752,-5.20461 L -10.8758,-5.51149 L -11.15,-5.73705 L -11.4913,-5.87238 L -11.8997,-5.9175  L -12.3042,-5.87172 L -12.6429,-5.73438 L -12.9157,-5.50549 L -13.1157,-5.19705 L -13.2357,-4.81972 L -13.2757,-4.37349  L -13.2361,-3.90874 L -13.1171,-3.51973 L -12.9187,-3.20651 L -12.6462,-2.97762 L -12.3045,-2.84029 L -11.8937,-2.79451  z M -19.8044,-2.42465 L -20.0881,-2.48431 L -20.3431,-2.58376 L -20.5661,-2.72076 L -20.7524,-2.8931 L -20.9021,-3.10075  L -21.0121,-3.34109 L -21.0781,-3.61009 L -21.1001,-3.90776 L -21.1001,-6.30875 L -20.5841,-6.30875 L -20.5841,-3.93576  L -20.5521,-3.6021 L -20.4561,-3.32643 L -20.2961,-3.10876 L -20.0784,-2.95154 L -19.8094,-2.85721 L -19.4891,-2.82576  L -19.1788,-2.85609 L -18.9211,-2.9471 L -18.7161,-3.09875 L -18.5678,-3.30954 L -18.4788,-3.57654 L -18.4491,-3.89977  L -18.4491,-6.30875 L -17.9301,-6.30875 L -17.9301,-3.85776 L -17.9516,-3.56964 L -18.0159,-3.30931 L -18.1231,-3.07675  L -18.2699,-2.87543 L -18.4516,-2.70876 L -18.6681,-2.57675 L -18.9161,-2.4812 L -19.1908,-2.42387 L -19.4921,-2.40475  z M -42.6111,-2.4375 L -42.6111,-6.2775 L -42.0921,-6.2775 L -42.0921,-2.4375 z M -3.52686,-2.4375 L -3.52686,-3.9915 L -5.65685,-3.9915 L -5.65685,-4.42149 L -3.52686,-4.42149 L -3.52686,-5.85349  L -5.72185,-5.85349 L -5.72185,-6.2775 L -3.00786,-6.2775 L -3.00786,-2.4375 z M -51.5761,-2.4375 L -51.5761,-6.2775 L -51.1081,-6.2775 L -51.1081,-3.75751 L -51.1118,-3.56483 L -51.1228,-3.30684  L -51.1411,-2.98351 L -49.0601,-6.2775 L -48.4571,-6.2775 L -48.4571,-2.4375 L -48.9191,-2.4375 L -48.9191,-4.98949  L -48.9051,-5.4455 L -48.8921,-5.70949 L -50.9511,-2.4375 z M -36.3261,-2.4375 L -36.3261,-6.2775 L -35.8581,-6.2775 L -35.8581,-3.75751 L -35.8618,-3.56483 L -35.8728,-3.30684  L -35.8911,-2.98351 L -33.8101,-6.2775 L -33.2071,-6.2775 L -33.2071,-2.4375 L -33.6691,-2.4375 L -33.6691,-4.98949  L -33.6551,-5.4455 L -33.6421,-5.70949 L -35.7011,-2.4375 z M -59.247,-2.4375 L -59.247,-2.86151 L -56.75,-2.86151 L -56.75,-4.1945 L -58.972,-4.1945 L -58.972,-4.61349  L -56.75,-4.61349 L -56.75,-5.85349 L -59.135,-5.85349 L -59.135,-6.2775 L -56.231,-6.2775 L -56.231,-2.4375  z M -28.8971,-2.4375 L -27.8061,-4.07051 L -28.0777,-4.14595 L -28.307,-4.26962 L -28.4941,-4.4415 L -28.633,-4.65338  L -28.7163,-4.89572 L -28.7441,-5.16849 L -28.7049,-5.49161 L -28.5872,-5.76361 L -28.3911,-5.9845 L -28.1229,-6.14726  L -27.7889,-6.24493 L -27.3891,-6.2775 L -25.5821,-6.2775 L -25.5821,-2.4375 L -26.1011,-2.4375 L -26.1011,-4.01051  L -27.3011,-4.01051 L -28.2991,-2.4375 z M -26.1011,-5.8615 L -27.3381,-5.8615 L -27.6012,-5.8416 L -27.8199,-5.78194 L -27.9941,-5.6825 L -28.1208,-5.54572  L -28.1968,-5.37271 L -28.2221,-5.1635 L -28.1971,-4.94627 L -28.1221,-4.76393 L -27.9971,-4.61649 L -27.8262,-4.50816  L -27.6136,-4.44316 L -27.3591,-4.42149 L -26.1011,-4.42149 z "
     stroke="black"
     fill="lightgray"
     stroke-width="0.5"
     id="path6"
     style="fill:#000000;fill-opacity:1;stroke:#ffffff;stroke-opacity:1" />
</svg>
